<?xml version="1.0" encoding="utf-8"?>
<!-- Generator: Adobe Illustrator 24.1.0, SVG Export Plug-In . SVG Version: 6.00 Build 0)  -->
<svg version="1.1" id="Capa_1" xmlns="http://www.w3.org/2000/svg" xmlns:xlink="http://www.w3.org/1999/xlink" x="0px" y="0px"
	 viewBox="0 0 66.9 70" style="enable-background:new 0 0 66.9 70;" xml:space="preserve">
<style type="text/css">
	.st0{fill:#FFFFFF;}
</style>
<g id="XMLID_3_">
	<path id="XMLID_5_" class="st0" d="M39.3,6.6c-15.7-3.2-31,6.9-34.2,22.6s6.9,31,22.6,34.2c5.8,1.2,11.6,0.5,16.7-1.6l9.6,3.6
		c0.8,0.3,1.7-0.4,1.5-1.3L54,55.5c3.9-3.9,6.8-8.9,8-14.8C65.2,25.1,55,9.8,39.3,6.6z M52.3,38.8c-2.1,10.4-12.2,17.1-22.6,15
		c-10.4-2.1-17.1-12.2-15-22.6c2.1-10.4,12.2-17.1,22.6-15C47.8,18.3,54.5,28.4,52.3,38.8z"/>
	<path id="XMLID_4_" class="st0" d="M44.9,33.7c-1.1,0.4-2.3,0.4-3.6-0.1c-2-0.8-3.3-2.8-3.2-4.9c0.1-1.3,0.6-2.5,1.4-3.4
		c0.2-0.2,0.2-0.6-0.1-0.8c-1.4-0.8-2.9-1.3-4.6-1.5c-5.8-0.6-11.3,3.2-12.8,8.8c-1.9,7,2.8,14,9.9,15c5.7,0.8,11.3-2.6,13.1-8.1
		c0.5-1.6,0.7-3.2,0.6-4.7C45.5,33.8,45.2,33.5,44.9,33.7z"/>
</g>
</svg>
